<svg xmlns="http://www.w3.org/2000/svg" viewBox="0 0 24 24"><path fill="#f4e4c1" d="M12 15.5c-1.93 0-3.5-1.57-3.5-3.5S10.07 8.5 12 8.5s3.5 1.57 3.5 3.5-1.57 3.5-3.5 3.5zm7.43-2.27c.04-.28.07-.56.07-.73s-.03-.46-.07-.73l1.57-1.23c.14-.11.18-.32.09-.49l-1.5-2.59c-.09-.18-.3-.23-.48-.16l-1.85.74c-.39-.3-.81-.54-1.27-.73l-.28-1.97c-.03-.2-.2-.34-.4-.34h-3c-.2 0-.37.14-.4.34l-.28 1.97c-.46.19-.88.44-1.27.73l-1.85-.74c-.18-.07-.39-.02-.48.16l-1.5 2.59c-.1.17-.05.37.09.49l1.57 1.23c-.04.28-.07.54-.07.73s.03.46.07.73l-1.57 1.23c-.14.11-.18.32-.09.49l1.5 2.59c.09.18.3.23.48.16l1.85-.74c.39.3.81.54 1.27.73l.28 1.97c.03.2.2.34.4.34h3c.2 0 .37-.14.4-.34l.28-1.97c.46-.19.88-.44 1.27-.73l1.85.74c.18.07.39.02.48-.16l1.5-2.59c.1-.17.05-.37-.09-.49l-1.57-1.23z"/></svg>
